<?xml version="1.0" encoding="UTF-8" standalone="no"?>
<svg
   version="1.1"
   viewBox="0 0 120 120"
   enable-background="new 0 0 459 459"
   id="svg2394"
   xmlns="http://www.w3.org/2000/svg">
  <path
  stroke="#ffaa00"
  stroke-width="2px"
     d="M 93.218439,38.882078 90.029588,9.4753217 C 89.498942,4.58484 85.339893,0.89701998 80.354989,0.89701998 h -40.71034 c -4.984909,0 -9.143955,3.68782002 -9.674343,8.57830172 L 26.781455,38.882078 c -0.293379,2.704316 0.595384,5.415326 2.437905,7.438222 1.842519,2.022633 4.480097,3.182806 7.236439,3.182806 h 8.429816 v 60.487734 c 0,0.75169 0.44216,1.43521 1.133334,1.75199 l 15.676175,7.18091 c 0.262325,0.12002 0.543699,0.17924 0.824035,0.17924 0.388391,0 0.774436,-0.11383 1.105401,-0.33737 l 10.637499,-7.18093 c 0.533262,-0.36003 0.852221,-0.95651 0.852221,-1.5941 V 49.502848 h 8.429555 c 2.756603,0 5.394182,-1.160173 7.236699,-3.182806 1.842522,-2.022896 2.731028,-4.733905 2.437905,-7.437964 z M 61.304898,36.048743 c 0,0.710004 -0.585458,1.287647 -1.305074,1.287647 -0.719633,0 -1.305097,-0.577643 -1.305097,-1.287647 0,-0.710008 0.585464,-1.287651 1.305097,-1.287651 0.719616,0 1.305074,0.577643 1.305074,1.287651 z M 48.80061,49.502848 H 60.561524 V 114.14529 L 48.80061,108.75774 Z m 15.676175,39.219139 h 6.722234 v 7.736954 h -6.722234 z m 0,-3.862938 V 67.731548 h 6.722234 v 17.127501 z m 0,-20.990443 v -6.080008 h 6.722234 v 6.080008 z m 0,49.641084 v -13.18751 h 6.722234 v 8.64957 z m 6.722234,-59.584039 h -6.722234 v -4.422803 h 6.722234 z M 87.86863,43.738054 c -1.117416,1.226609 -2.653243,1.90211 -4.324535,1.90211 H 36.455541 c -1.671295,0 -3.207118,-0.675501 -4.324276,-1.90211 -1.117411,-1.226615 -1.634749,-2.805269 -1.456998,-4.444957 l 3.18885,-29.4067582 c 0.317135,-2.9224428 2.80254,-5.126379 5.781532,-5.126379 h 10.402583 v 6.9643642 l -4.921744,4.855715 c -0.649935,-0.287146 -1.367731,-0.450419 -2.124679,-0.450419 -2.8785,0 -5.220348,2.310555 -5.220348,5.150586 0,2.840034 2.341848,5.150589 5.220348,5.150589 2.878495,0 5.220339,-2.310555 5.220339,-5.150589 0,-0.677818 -0.136772,-1.323958 -0.378989,-1.917305 l 5.546877,-5.472756 c 0.367247,-0.362343 0.573453,-0.853451 0.573453,-1.365679 V 4.7599598 h 4.079702 V 31.277496 c -1.910651,0.76589 -3.262723,2.614435 -3.262723,4.771247 0,2.840031 2.341847,5.150586 5.220356,5.150586 2.878486,0 5.220334,-2.310555 5.220334,-5.150586 0,-2.156812 -1.352065,-4.005357 -3.262709,-4.771247 V 4.7599598 h 4.079695 V 19.310363 c 0,0.512228 0.206205,1.003594 0.573456,1.36568 l 5.54662,5.4725 c -0.242229,0.593089 -0.379002,1.239231 -0.379002,1.916788 0,2.840034 2.341851,5.150587 5.220346,5.150587 2.878498,0 5.220346,-2.310553 5.220346,-5.150587 0,-2.840034 -2.341848,-5.150585 -5.220346,-5.150585 -0.757207,0 -1.475268,0.163533 -2.1252,0.450676 L 69.952406,18.510479 V 4.7599598 h 10.402583 c 2.978987,0 5.464393,2.2039362 5.781269,5.126379 l 3.188841,29.4067582 c 0.178016,1.639688 -0.339314,3.218342 -1.456469,4.444957 z M 44.305892,21.280206 c 0,0.710012 -0.58546,1.28765 -1.305083,1.28765 -0.719623,0 -1.305085,-0.577638 -1.305085,-1.28765 0,-0.710006 0.585462,-1.287645 1.305085,-1.287645 0.719623,0 1.305083,0.577896 1.305083,1.287645 z m 32.692932,5.497738 c 0.719627,0 1.305089,0.577638 1.305089,1.287646 0,0.710008 -0.585462,1.287646 -1.305089,1.287646 -0.719623,0 -1.305085,-0.577638 -1.305085,-1.287646 0,-0.710008 0.585462,-1.287646 1.305085,-1.287646 z"
     id="path2392" />
</svg>
