<?xml version="1.0" encoding="UTF-8"?>
<svg width="5.4266mm" height="4.5861mm" version="1.1" viewBox="0 0 5.4266 4.5861" xmlns="http://www.w3.org/2000/svg">
<g fill="#ffbf00" stroke-width=".26458" aria-label="TC">
<path d="m1.1218 4.5579q-0.0635-0.035278-0.0635-0.14817t0.0635-0.14111q0.070556-0.035278 0.28928-0.035278 0.21872 0 0.28222 0.035278 0.070556 0.028222 0.070556 0.14111 0 0.11289-0.070556 0.14817-0.0635 0.028222-0.28222 0.028222-0.21872 0-0.28928-0.028222zm0-0.70556q-0.0635-0.035278-0.0635-0.14817t0.0635-0.14111q0.070556-0.035278 0.28928-0.035278 0.21872 0 0.28222 0.035278 0.070556 0.028222 0.070556 0.14111 0 0.11289-0.070556 0.14817-0.0635 0.028222-0.28222 0.028222-0.21872 0-0.28928-0.028222zm0-0.70556q-0.0635-0.035278-0.0635-0.14817 0-0.11289 0.0635-0.14111 0.070556-0.035278 0.28928-0.035278 0.21872 0 0.28222 0.035278 0.070556 0.028222 0.070556 0.14111 0 0.11289-0.070556 0.14817-0.0635 0.028222-0.28222 0.028222-0.21872 0-0.28928-0.028222zm0-0.70556q-0.0635-0.035278-0.0635-0.14817 0-0.11289 0.0635-0.14111 0.070556-0.035278 0.28928-0.035278 0.21872 0 0.28222 0.035278 0.070556 0.028222 0.070556 0.14111 0 0.11289-0.070556 0.14817-0.0635 0.028222-0.28222 0.028222-0.21872 0-0.28928-0.028222zm0-0.70556q-0.0635-0.035278-0.0635-0.14817 0-0.11289 0.0635-0.14111 0.070556-0.035278 0.28928-0.035278 0.21872 0 0.28222 0.035278 0.070556 0.028222 0.070556 0.14111 0 0.11289-0.070556 0.14817-0.0635 0.028222-0.28222 0.028222-0.21872 0-0.28928-0.028222zm0-0.70556q-0.0635-0.035278-0.0635-0.14817 0-0.11289 0.0635-0.14111 0.070556-0.035278 0.28928-0.035278 0.21872 0 0.28222 0.035278 0.070556 0.028222 0.070556 0.14111 0 0.11289-0.070556 0.14817-0.0635 0.028222-0.28222 0.028222-0.21872 0-0.28928-0.028222zm-1.1218-0.85373q0-0.10583 0.10583-0.13406 0.16933-0.042334 1.3053-0.042334 1.2206 0 1.3476 0.0635 0.0635 0.028222 0.0635 0.11289 0 0.10583-0.10583 0.13406-0.16933 0.042334-1.3053 0.042334-1.2206 0-1.3476-0.0635-0.0635-0.028222-0.0635-0.11289z"/>
<path d="m3.3214 4.5085q-0.014111-0.035278-0.014111-0.098778t0.014111-0.091723q0.021167-0.035278 0.11994-0.056445 0.10583-0.021167 0.26106-0.021167 0.15522-0.00706 0.48684-0.00706 0.33161 0 0.48684 0.00706 0.15522 0 0.254 0.021167 0.10583 0.021167 0.11995 0.056445 0.021167 0.028222 0.021167 0.091723 0 0.0635-0.021167 0.098778-0.014111 0.028222-0.11995 0.049389-0.098778 0.021167-0.254 0.028222-0.15522 0-0.48684 0-0.33161 0-0.48684 0-0.15522-0.00706-0.26106-0.028222-0.098778-0.021167-0.11994-0.049389zm1.4605-0.65617q-0.0635-0.035278-0.0635-0.14817t0.0635-0.14111q0.070556-0.035278 0.28928-0.035278 0.21872 0 0.28222 0.035278 0.070556 0.028222 0.070556 0.14111 0 0.11289-0.070556 0.14817-0.0635 0.028222-0.28222 0.028222-0.21872 0-0.28928-0.028222zm-1.7639 0q-0.0635-0.035278-0.0635-0.14817t0.0635-0.14111q0.070556-0.035278 0.28928-0.035278 0.21872 0 0.28222 0.035278 0.070556 0.028222 0.070556 0.14111 0 0.11289-0.070556 0.14817-0.0635 0.028222-0.28222 0.028222-0.21872 0-0.28928-0.028222zm-0.35278-0.70556q-0.0635-0.035278-0.0635-0.14817 0-0.11289 0.0635-0.14111 0.070556-0.035278 0.28928-0.035278 0.21872 0 0.28222 0.035278 0.070556 0.028222 0.070556 0.14111 0 0.11289-0.070556 0.14817-0.0635 0.028222-0.28222 0.028222-0.21872 0-0.28928-0.028222zm0-0.70556q-0.0635-0.035278-0.0635-0.14817 0-0.11289 0.0635-0.14111 0.070556-0.035278 0.28928-0.035278 0.21872 0 0.28222 0.035278 0.070556 0.028222 0.070556 0.14111 0 0.11289-0.070556 0.14817-0.0635 0.028222-0.28222 0.028222-0.21872 0-0.28928-0.028222zm0-0.70556q-0.0635-0.035278-0.0635-0.14817 0-0.11289 0.0635-0.14111 0.070556-0.035278 0.28928-0.035278 0.21872 0 0.28222 0.035278 0.070556 0.028222 0.070556 0.14111 0 0.11289-0.070556 0.14817-0.0635 0.028222-0.28222 0.028222-0.21872 0-0.28928-0.028222zm2.1167-0.70556q-0.0635-0.035278-0.0635-0.14817 0-0.11289 0.0635-0.14111 0.070556-0.035278 0.28928-0.035278 0.21872 0 0.28222 0.035278 0.070556 0.028222 0.070556 0.14111 0 0.11289-0.070556 0.14817-0.0635 0.028222-0.28222 0.028222-0.21872 0-0.28928-0.028222zm-1.7639 0q-0.0635-0.035278-0.0635-0.14817 0-0.11289 0.0635-0.14111 0.070556-0.035278 0.28928-0.035278 0.21872 0 0.28222 0.035278 0.070556 0.028222 0.070556 0.14111 0 0.11289-0.070556 0.14817-0.0635 0.028222-0.28222 0.028222-0.21872 0-0.28928-0.028222zm0.30339-0.75495q-0.014111-0.035278-0.014111-0.098778t0.014111-0.091723q0.021167-0.035278 0.11994-0.056445 0.10583-0.021167 0.26106-0.021167 0.15522-0.0070556 0.48684-0.0070556 0.33161 0 0.48684 0.0070556 0.15522 0 0.254 0.021167 0.10583 0.021167 0.11995 0.056445 0.021167 0.028222 0.021167 0.091723 0 0.0635-0.021167 0.098778-0.014111 0.028222-0.11995 0.049389-0.098778 0.021167-0.254 0.028222-0.15522 0-0.48684 0-0.33161 0-0.48684 0-0.15522-0.007056-0.26106-0.028222-0.098778-0.021167-0.11994-0.049389z"/>
</g>
</svg>
