<?xml version="1.0" encoding="UTF-8" standalone="no"?>
<svg
   version="1.0"
   viewBox="0 0 125 125"
   id="svg929"
   xmlns="http://www.w3.org/2000/svg">
  <defs
     id="defs919">
    <linearGradient
       id="b"
       x1="89.137001"
       x2="147.78"
       y1="111.92"
       y2="168.10001"
       gradientUnits="userSpaceOnUse">
      <stop
         stop-color="#ffe052"
         offset="0"
         id="stop909" />
      <stop
         stop-color="#ffc331"
         offset="1"
         id="stop911" />
    </linearGradient>
    <linearGradient
       id="a"
       x1="55.549"
       x2="110.15"
       y1="77.07"
       y2="131.85001"
       gradientUnits="userSpaceOnUse">
      <stop
         stop-color="#387eb8"
         offset="0"
         id="stop914" />
      <stop
         stop-color="#366994"
         offset="1"
         id="stop916" />
    </linearGradient>
  </defs>
  <g
     transform="matrix(1.1117244,0,0,1.1187691,-525.12416,-280.51458)"
     stroke="#ffaa00"
     stroke-width="1.5px"
     id="g927"
     style="fill:none">
    <g
       transform="translate(428.42,184.26)"
       stroke="#ffaa00"
       stroke-width="1.5px"
       id="g925"
       style="fill:none">
      <path
         d="m 99.75,67.469 c -28.032,2e-6 -26.281,12.156 -26.281,12.156 l 0.03125,12.594 h 26.75 v 3.7812 h -37.375 c 0,0 -17.938,-2.0343 -17.938,26.25 -2e-6,28.284 15.656,27.281 15.656,27.281 h 9.3438 v -13.125 c 0,0 -0.50365,-15.656 15.406,-15.656 h 26.531 c 0,0 14.906,0.24096 14.906,-14.406 v -24.219 c 0,-2e-6 2.2632,-14.656 -27.031,-14.656 z M 85,75.9378 c 2.6614,-2e-6 4.8125,2.1511 4.8125,4.8125 2e-6,2.6614 -2.1511,4.8125 -4.8125,4.8125 -2.6614,2e-6 -4.8125,-2.1511 -4.8125,-4.8125 -2e-6,-2.6614 2.1511,-4.8125 4.8125,-4.8125 z"
         id="path921"
         style="fill:none" />
      <path
         d="m 100.55,177.31 c 28.032,0 26.281,-12.156 26.281,-12.156 l -0.0312,-12.594 h -26.75 v -3.7812 h 37.375 c 0,0 17.938,2.0343 17.938,-26.25 1e-5,-28.284 -15.656,-27.281 -15.656,-27.281 h -9.3438 v 13.125 c 0,0 0.50366,15.656 -15.406,15.656 H 88.426 c 0,0 -14.906,-0.24096 -14.906,14.406 v 24.219 c 0,0 -2.2632,14.656 27.031,14.656 z m 14.75,-8.4688 c -2.6614,0 -4.8125,-2.1511 -4.8125,-4.8125 0,-2.6614 2.1511,-4.8125 4.8125,-4.8125 2.6614,0 4.8125,2.1511 4.8125,4.8125 1e-5,2.6614 -2.1511,4.8125 -4.8125,4.8125 z"
         id="path923"
         style="fill:none" />
    </g>
  </g>
</svg>
