<svg xmlns="http://www.w3.org/2000/svg" viewBox="0 0 25 25"><defs><style>.cls-1{fill:#ffaa00;}</style></defs><g id="person-male"><path class="cls-1" d="M21.9,20.65l-1.18-4a5,5,0,0,0-4.84-3.55h-.46A6.1,6.1,0,0,0,18.05,8a5.78,5.78,0,0,0-5.53-6A5.79,5.79,0,0,0,7,8a6.11,6.11,0,0,0,2.64,5.1H9.17a5,5,0,0,0-4.84,3.55l-1.19,4a1.09,1.09,0,0,0,.59,1.29,25.39,25.39,0,0,0,8.79,2h.05a25.47,25.47,0,0,0,8.74-2A1.08,1.08,0,0,0,21.9,20.65Zm-9.48-5.88-.81-.7h1.62Zm2.33-.7h1l-1.36,2.62-1.27-1.18ZM12.52,3A4.55,4.55,0,0,1,16.7,6.05a3.76,3.76,0,0,1-1.38,0,3.89,3.89,0,0,1-1.7-.89.51.51,0,0,0-.65,0,5.23,5.23,0,0,1-4.64,1A4.56,4.56,0,0,1,12.52,3ZM8,8A5.64,5.64,0,0,1,8.07,7a6.6,6.6,0,0,0,1.64.21A5.92,5.92,0,0,0,11.51,7a6.09,6.09,0,0,0,1.76-.85A4.63,4.63,0,0,0,15.09,7,4.58,4.58,0,0,0,17,7a5.64,5.64,0,0,1,.08.93,4.78,4.78,0,0,1-4.53,5A4.79,4.79,0,0,1,8,8Zm2.11,6.1,1.68,1.46-1.16,1.15L9.14,14.07h.95Zm-6,6.86,1.19-4a4,4,0,0,1,2.79-2.68l2,3.53a.57.57,0,0,0,.37.25h.07a.47.47,0,0,0,.35-.15L12,16.7l.05,6.2A24.73,24.73,0,0,1,4.16,21S4.08,21,4.1,20.93ZM20.89,21a25.55,25.55,0,0,1-7.83,1.86L13,16.8l1.15,1.07a.53.53,0,0,0,.34.13h.09a.47.47,0,0,0,.35-.26l1.85-3.55a4,4,0,0,1,3,2.72l1.18,4A.09.09,0,0,1,20.89,21Z"/></g></svg>
