<?xml version="1.0" encoding="UTF-8"?>
<svg width="25.665mm" height="11.363mm" version="1.1" viewBox="0 0 25.665 11.363" xmlns="http://www.w3.org/2000/svg">
<g transform="translate(-1.2374 -2.0924)">
<g fill="#ffbf00" stroke-width=".26458" aria-label="Timothy">
<path d="m4.1092 6.6503q-0.0635-0.035278-0.0635-0.14817 0-0.11289 0.0635-0.14111 0.070556-0.035278 0.28928-0.035278 0.21872 0 0.28222 0.035278 0.070556 0.028222 0.070556 0.14111 0 0.11289-0.070556 0.14817-0.0635 0.028222-0.28222 0.028222-0.21872 0-0.28928-0.028222zm0-0.70556q-0.0635-0.035278-0.0635-0.14817t0.0635-0.14111q0.070556-0.035278 0.28928-0.035278 0.21872 0 0.28222 0.035278 0.070556 0.028222 0.070556 0.14111 0 0.11289-0.070556 0.14817-0.0635 0.028222-0.28222 0.028222-0.21872 0-0.28928-0.028222zm0-0.70556q-0.0635-0.035278-0.0635-0.14817t0.0635-0.14111q0.070556-0.035278 0.28928-0.035278 0.21872 0 0.28222 0.035278 0.070556 0.028222 0.070556 0.14111 0 0.11289-0.070556 0.14817-0.0635 0.028222-0.28222 0.028222-0.21872 0-0.28928-0.028222zm0-0.70556q-0.0635-0.035278-0.0635-0.14817t0.0635-0.14111q0.070556-0.035278 0.28928-0.035278 0.21872 0 0.28222 0.035278 0.070556 0.028222 0.070556 0.14111 0 0.11289-0.070556 0.14817-0.0635 0.028222-0.28222 0.028222-0.21872 0-0.28928-0.028222zm0-0.70556q-0.0635-0.035278-0.0635-0.14817t0.0635-0.14111q0.070556-0.035278 0.28928-0.035278 0.21872 0 0.28222 0.035278 0.070556 0.028222 0.070556 0.14111 0 0.11289-0.070556 0.14817-0.0635 0.028222-0.28222 0.028222-0.21872 0-0.28928-0.028222zm0-0.70556q-0.0635-0.035278-0.0635-0.14817 0-0.11289 0.0635-0.14111 0.070556-0.035278 0.28928-0.035278 0.21872 0 0.28222 0.035278 0.070556 0.028222 0.070556 0.14111 0 0.11289-0.070556 0.14817-0.0635 0.028222-0.28222 0.028222-0.21872 0-0.28928-0.028222zm-1.1218-0.85373q0-0.10583 0.10583-0.13406 0.16933-0.042334 1.3053-0.042334 1.2206 0 1.3476 0.0635 0.0635 0.028222 0.0635 0.11289 0 0.10583-0.10583 0.13406-0.16933 0.042333-1.3053 0.042333-1.2206 0-1.3476-0.0635-0.0635-0.028222-0.0635-0.11289z"/>
<path d="m6.6033 6.5021q0-0.11289 0.10583-0.14111 0.13406-0.035278 0.9525-0.035278 0.91017 0 1.0089 0.0635 0.049389 0.028222 0.049389 0.11289 0 0.11289-0.10583 0.14111-0.13406 0.035278-0.9525 0.035278-0.91017 0-1.0089-0.0635-0.049389-0.028222-0.049389-0.11289zm0.76906-0.55739q-0.0635-0.035278-0.0635-0.14817t0.0635-0.14111q0.070556-0.035278 0.28928-0.035278 0.21872 0 0.28222 0.035278 0.070556 0.028222 0.070556 0.14111 0 0.11289-0.070556 0.14817-0.0635 0.028222-0.28222 0.028222-0.21872 0-0.28928-0.028222zm0-0.70556q-0.0635-0.035278-0.0635-0.14817t0.0635-0.14111q0.070556-0.035278 0.28928-0.035278 0.21872 0 0.28222 0.035278 0.070556 0.028222 0.070556 0.14111 0 0.11289-0.070556 0.14817-0.0635 0.028222-0.28222 0.028222-0.21872 0-0.28928-0.028222zm0-0.70556q-0.0635-0.035278-0.0635-0.14817t0.0635-0.14111q0.070556-0.035278 0.28928-0.035278 0.21872 0 0.28222 0.035278 0.070556 0.028222 0.070556 0.14111 0 0.11289-0.070556 0.14817-0.0635 0.028222-0.28222 0.028222-0.21872 0-0.28928-0.028222zm-0.32456-0.70556q-0.091723-0.028222-0.091723-0.14817 0-0.11994 0.091723-0.14817 0.091723-0.028222 0.43745-0.028222 0.34572 0 0.43745 0.028222 0.091723 0.028222 0.091723 0.14817 0 0.11994-0.091723 0.14817-0.091723 0.028222-0.43745 0.028222-0.34572 0-0.43745-0.028222zm0.32456-1.4111q-0.0635-0.035278-0.0635-0.14817 0-0.11289 0.0635-0.14111 0.070556-0.035278 0.28928-0.035278 0.21872 0 0.28222 0.035278 0.070556 0.028222 0.070556 0.14111 0 0.11289-0.070556 0.14817-0.0635 0.028222-0.28222 0.028222-0.21872 0-0.28928-0.028222z"/>
<path d="m11.694 6.6503q-0.0635-0.035278-0.0635-0.14817 0-0.11289 0.0635-0.14111 0.07056-0.035278 0.28928-0.035278 0.21872 0 0.28222 0.035278 0.07056 0.028222 0.07056 0.14111 0 0.11289-0.07056 0.14817-0.0635 0.028222-0.28222 0.028222-0.21872 0-0.28928-0.028222zm-2.1167 0q-0.0635-0.035278-0.0635-0.14817 0-0.11289 0.0635-0.14111 0.070556-0.035278 0.28928-0.035278 0.21872 0 0.28222 0.035278 0.07056 0.028222 0.07056 0.14111 0 0.11289-0.07056 0.14817-0.0635 0.028222-0.28222 0.028222-0.21872 0-0.28928-0.028222zm2.1167-0.70556q-0.0635-0.035278-0.0635-0.14817t0.0635-0.14111q0.07056-0.035278 0.28928-0.035278 0.21872 0 0.28222 0.035278 0.07056 0.028222 0.07056 0.14111 0 0.11289-0.07056 0.14817-0.0635 0.028222-0.28222 0.028222-0.21872 0-0.28928-0.028222zm-1.0583 0q-0.0635-0.035278-0.0635-0.14817t0.0635-0.14111q0.07056-0.035278 0.28928-0.035278 0.21872 0 0.28222 0.035278 0.07056 0.028222 0.07056 0.14111 0 0.11289-0.07056 0.14817-0.0635 0.028222-0.28222 0.028222-0.21872 0-0.28928-0.028222zm-1.0583 0q-0.0635-0.035278-0.0635-0.14817t0.0635-0.14111q0.070556-0.035278 0.28928-0.035278 0.21872 0 0.28222 0.035278 0.07056 0.028222 0.07056 0.14111 0 0.11289-0.07056 0.14817-0.0635 0.028222-0.28222 0.028222-0.21872 0-0.28928-0.028222zm2.1167-0.70556q-0.0635-0.035278-0.0635-0.14817t0.0635-0.14111q0.07056-0.035278 0.28928-0.035278 0.21872 0 0.28222 0.035278 0.07056 0.028222 0.07056 0.14111 0 0.11289-0.07056 0.14817-0.0635 0.028222-0.28222 0.028222-0.21872 0-0.28928-0.028222zm-1.0583 0q-0.0635-0.035278-0.0635-0.14817t0.0635-0.14111q0.07056-0.035278 0.28928-0.035278 0.21872 0 0.28222 0.035278 0.07056 0.028222 0.07056 0.14111 0 0.11289-0.07056 0.14817-0.0635 0.028222-0.28222 0.028222-0.21872 0-0.28928-0.028222zm-1.0583 0q-0.0635-0.035278-0.0635-0.14817t0.0635-0.14111q0.070556-0.035278 0.28928-0.035278 0.21872 0 0.28222 0.035278 0.07056 0.028222 0.07056 0.14111 0 0.11289-0.07056 0.14817-0.0635 0.028222-0.28222 0.028222-0.21872 0-0.28928-0.028222zm-0.0635-0.85373q0-0.10583 0.10583-0.13406 0.16933-0.042333 1.3053-0.042333 1.2206 0 1.3476 0.0635 0.0635 0.028222 0.0635 0.11289 0 0.10583-0.10583 0.13406-0.16933 0.042334-1.3053 0.042334-1.2206 0-1.3476-0.0635-0.0635-0.028222-0.0635-0.11289zm1.8274-0.55739q-0.0635-0.035278-0.0635-0.14817t0.0635-0.14111q0.07056-0.035278 0.28928-0.035278 0.21872 0 0.28222 0.035278 0.07056 0.028222 0.07056 0.14111 0 0.11289-0.07056 0.14817-0.0635 0.028222-0.28222 0.028222-0.21872 0-0.28928-0.028222zm-1.7357 0q-0.091723-0.028222-0.091723-0.14817 0-0.11994 0.091723-0.14817 0.091723-0.028222 0.43745-0.028222 0.34572 0 0.43745 0.028222 0.09172 0.028222 0.09172 0.14817 0 0.11994-0.09172 0.14817-0.09172 0.028222-0.43745 0.028222-0.34572 0-0.43745-0.028222z"/>
<path d="m13.13 6.5021q0-0.11289 0.10583-0.14111 0.13406-0.035278 0.9525-0.035278 0.91017 0 1.0089 0.0635 0.04939 0.028222 0.04939 0.11289 0 0.11289-0.10583 0.14111-0.13406 0.035278-0.9525 0.035278-0.91017 0-1.0089-0.0635-0.04939-0.028222-0.04939-0.11289zm1.8274-0.55739q-0.0635-0.035278-0.0635-0.14817t0.0635-0.14111q0.07056-0.035278 0.28928-0.035278 0.21872 0 0.28222 0.035278 0.07056 0.028222 0.07056 0.14111 0 0.11289-0.07056 0.14817-0.0635 0.028222-0.28222 0.028222-0.21872 0-0.28928-0.028222zm-2.1167 0q-0.0635-0.035278-0.0635-0.14817t0.0635-0.14111q0.07056-0.035278 0.28928-0.035278 0.21872 0 0.28222 0.035278 0.07056 0.028222 0.07056 0.14111 0 0.11289-0.07056 0.14817-0.0635 0.028222-0.28222 0.028222-0.21872 0-0.28928-0.028222zm2.1167-0.70556q-0.0635-0.035278-0.0635-0.14817t0.0635-0.14111q0.07056-0.035278 0.28928-0.035278 0.21872 0 0.28222 0.035278 0.07056 0.028222 0.07056 0.14111 0 0.11289-0.07056 0.14817-0.0635 0.028222-0.28222 0.028222-0.21872 0-0.28928-0.028222zm-2.1167 0q-0.0635-0.035278-0.0635-0.14817t0.0635-0.14111q0.07056-0.035278 0.28928-0.035278 0.21872 0 0.28222 0.035278 0.07056 0.028222 0.07056 0.14111 0 0.11289-0.07056 0.14817-0.0635 0.028222-0.28222 0.028222-0.21872 0-0.28928-0.028222zm2.1167-0.70556q-0.0635-0.035278-0.0635-0.14817t0.0635-0.14111q0.07056-0.035278 0.28928-0.035278 0.21872 0 0.28222 0.035278 0.07056 0.028222 0.07056 0.14111 0 0.11289-0.07056 0.14817-0.0635 0.028222-0.28222 0.028222-0.21872 0-0.28928-0.028222zm-2.1167 0q-0.0635-0.035278-0.0635-0.14817t0.0635-0.14111q0.07056-0.035278 0.28928-0.035278 0.21872 0 0.28222 0.035278 0.07056 0.028222 0.07056 0.14111 0 0.11289-0.07056 0.14817-0.0635 0.028222-0.28222 0.028222-0.21872 0-0.28928-0.028222zm0.28928-0.85373q0-0.11289 0.10583-0.14111 0.13406-0.035278 0.9525-0.035278 0.91017 0 1.0089 0.0635 0.04939 0.028222 0.04939 0.11289 0 0.11289-0.10583 0.14111-0.13406 0.035278-0.9525 0.035278-0.91017 0-1.0089-0.0635-0.04939-0.028222-0.04939-0.11289z"/>
<path d="m17.19 6.6503q-0.09172-0.028222-0.09172-0.14817 0-0.11995 0.09172-0.14817 0.09172-0.028222 0.43745-0.028222 0.34572 0 0.43745 0.028222 0.09172 0.028222 0.09172 0.14817 0 0.11994-0.09172 0.14817-0.09172 0.028222-0.43745 0.028222-0.34572 0-0.43745-0.028222zm0.67734-0.70556q-0.0635-0.035278-0.0635-0.14817t0.0635-0.14111q0.07056-0.035278 0.28928-0.035278 0.21872 0 0.28222 0.035278 0.07056 0.028222 0.07056 0.14111 0 0.11289-0.07056 0.14817-0.0635 0.028222-0.28222 0.028222t-0.28928-0.028222zm-1.0583 0q-0.0635-0.035278-0.0635-0.14817t0.0635-0.14111q0.07056-0.035278 0.28928-0.035278 0.21872 0 0.28222 0.035278 0.07056 0.028222 0.07056 0.14111 0 0.11289-0.07056 0.14817-0.0635 0.028222-0.28222 0.028222-0.21872 0-0.28928-0.028222zm0-0.70556q-0.0635-0.035278-0.0635-0.14817t0.0635-0.14111q0.07056-0.035278 0.28928-0.035278 0.21872 0 0.28222 0.035278 0.07056 0.028222 0.07056 0.14111 0 0.11289-0.07056 0.14817-0.0635 0.028222-0.28222 0.028222-0.21872 0-0.28928-0.028222zm0-0.70556q-0.0635-0.035278-0.0635-0.14817t0.0635-0.14111q0.07056-0.035278 0.28928-0.035278 0.21872 0 0.28222 0.035278 0.07056 0.028222 0.07056 0.14111 0 0.11289-0.07056 0.14817-0.0635 0.028222-0.28222 0.028222-0.21872 0-0.28928-0.028222zm-0.76906-0.85373q0-0.11289 0.10583-0.14111 0.13406-0.035278 0.9525-0.035278 0.91017 0 1.009 0.0635 0.04939 0.028222 0.04939 0.11289 0 0.11289-0.10583 0.14111-0.13406 0.035278-0.9525 0.035278-0.91017 0-1.0089-0.0635-0.04939-0.028222-0.04939-0.11289zm0.76906-0.55739q-0.0635-0.035278-0.0635-0.14817 0-0.11289 0.0635-0.14111 0.07056-0.035278 0.28928-0.035278 0.21872 0 0.28222 0.035278 0.07056 0.028222 0.07056 0.14111 0 0.11289-0.07056 0.14817-0.0635 0.028222-0.28222 0.028222-0.21872 0-0.28928-0.028222zm0-0.70556q-0.0635-0.035278-0.0635-0.14817 0-0.11289 0.0635-0.14111 0.07056-0.035278 0.28928-0.035278 0.21872 0 0.28222 0.035278 0.07056 0.028222 0.07056 0.14111 0 0.11289-0.07056 0.14817-0.0635 0.028222-0.28222 0.028222-0.21872 0-0.28928-0.028222z"/>
<path d="m21.484 6.6503q-0.0635-0.035278-0.0635-0.14817 0-0.11289 0.0635-0.14111 0.07056-0.035278 0.28928-0.035278 0.21872 0 0.28222 0.035278 0.07056 0.028222 0.07056 0.14111 0 0.11289-0.07056 0.14817-0.0635 0.028222-0.28222 0.028222-0.21872 0-0.28928-0.028222zm-2.1167 0q-0.0635-0.035278-0.0635-0.14817 0-0.11289 0.0635-0.14111 0.07056-0.035278 0.28928-0.035278 0.21872 0 0.28222 0.035278 0.07056 0.028222 0.07056 0.14111 0 0.11289-0.07056 0.14817-0.0635 0.028222-0.28222 0.028222-0.21872 0-0.28928-0.028222zm2.1167-0.70556q-0.0635-0.035278-0.0635-0.14817t0.0635-0.14111q0.07056-0.035278 0.28928-0.035278 0.21872 0 0.28222 0.035278 0.07056 0.028222 0.07056 0.14111 0 0.11289-0.07056 0.14817-0.0635 0.028222-0.28222 0.028222-0.21872 0-0.28928-0.028222zm-2.1167 0q-0.0635-0.035278-0.0635-0.14817t0.0635-0.14111q0.07056-0.035278 0.28928-0.035278 0.21872 0 0.28222 0.035278 0.07056 0.028222 0.07056 0.14111 0 0.11289-0.07056 0.14817-0.0635 0.028222-0.28222 0.028222-0.21872 0-0.28928-0.028222zm2.1167-0.70556q-0.0635-0.035278-0.0635-0.14817t0.0635-0.14111q0.07056-0.035278 0.28928-0.035278 0.21872 0 0.28222 0.035278 0.07056 0.028222 0.07056 0.14111 0 0.11289-0.07056 0.14817-0.0635 0.028222-0.28222 0.028222-0.21872 0-0.28928-0.028222zm-2.1167 0q-0.0635-0.035278-0.0635-0.14817t0.0635-0.14111q0.07056-0.035278 0.28928-0.035278 0.21872 0 0.28222 0.035278 0.07056 0.028222 0.07056 0.14111 0 0.11289-0.07056 0.14817-0.0635 0.028222-0.28222 0.028222-0.21872 0-0.28928-0.028222zm2.1167-0.70556q-0.0635-0.035278-0.0635-0.14817t0.0635-0.14111q0.07056-0.035278 0.28928-0.035278 0.21872 0 0.28222 0.035278 0.07056 0.028222 0.07056 0.14111 0 0.11289-0.07056 0.14817-0.0635 0.028222-0.28222 0.028222-0.21872 0-0.28928-0.028222zm-2.0885 0q-0.09172-0.028222-0.09172-0.14817 0-0.11994 0.09172-0.14817 0.09172-0.028222 0.43745-0.028222 0.34572 0 0.43745 0.028222 0.09172 0.028222 0.09172 0.14817 0 0.11994-0.09172 0.14817-0.09172 0.028222-0.43745 0.028222-0.34572 0-0.43745-0.028222zm-0.09172-0.85373q0-0.10583 0.10583-0.13406 0.15522-0.042334 1.1289-0.042334 1.0654 0 1.1783 0.0635 0.05645 0.028222 0.05645 0.11289 0 0.10583-0.10583 0.13406-0.15522 0.042334-1.1289 0.042334-1.0654 0-1.1783-0.0635-0.05644-0.028222-0.05644-0.11289zm0.0635-0.55739q-0.0635-0.035278-0.0635-0.14817 0-0.11289 0.0635-0.14111 0.07056-0.035278 0.28928-0.035278 0.21872 0 0.28222 0.035278 0.07056 0.028222 0.07056 0.14111 0 0.11289-0.07056 0.14817-0.0635 0.028222-0.28222 0.028222-0.21872 0-0.28928-0.028222zm0-0.70556q-0.0635-0.035278-0.0635-0.14817 0-0.11289 0.0635-0.14111 0.07056-0.035278 0.28928-0.035278 0.21872 0 0.28222 0.035278 0.07056 0.028222 0.07056 0.14111 0 0.11289-0.07056 0.14817-0.0635 0.028222-0.28222 0.028222-0.21872 0-0.28928-0.028222z"/>
<path d="m22.933 8.005q-0.01411-0.028222-0.01411-0.091723 0-0.0635 0.01411-0.098778 0.02117-0.028222 0.11994-0.049389 0.10583-0.021167 0.26106-0.028222 0.15522 0 0.48684 0t0.48684 0q0.15522 0.00706 0.254 0.028222 0.10583 0.021167 0.11994 0.049389 0.02117 0.035278 0.02117 0.098778t-0.02117 0.091723q-0.01411 0.035278-0.11994 0.056445-0.09878 0.021167-0.254 0.021167-0.15522 0.00706-0.48684 0.00706t-0.48684-0.00706q-0.15522 0-0.26106-0.021167-0.09878-0.021167-0.11994-0.056445zm1.4605-0.65617q-0.0635-0.028222-0.0635-0.14111 0-0.11289 0.0635-0.14817 0.07056-0.028222 0.28928-0.028222 0.21872 0 0.28222 0.028222 0.07056 0.035278 0.07056 0.14817t-0.07056 0.14111q-0.0635 0.035278-0.28222 0.035278-0.21872 0-0.28928-0.035278zm-1.7639 0q-0.0635-0.028222-0.0635-0.14111 0-0.11289 0.0635-0.14817 0.07056-0.028222 0.28928-0.028222 0.21872 0 0.28222 0.028222 0.07056 0.035278 0.07056 0.14817t-0.07056 0.14111q-0.0635 0.035278-0.28222 0.035278-0.21872 0-0.28928-0.035278zm1.7639-0.6985q-0.0635-0.035278-0.0635-0.14817 0-0.11289 0.0635-0.14111 0.07056-0.035278 0.28928-0.035278 0.21872 0 0.28222 0.035278 0.07056 0.028222 0.07056 0.14111 0 0.11289-0.07056 0.14817-0.0635 0.028222-0.28222 0.028222-0.21872 0-0.28928-0.028222zm-1.4746-0.85373q0-0.11289 0.10583-0.14111 0.13406-0.035278 0.9525-0.035278 0.91017 0 1.0089 0.0635 0.04939 0.028222 0.04939 0.11289 0 0.11289-0.10583 0.14111-0.13406 0.035278-0.9525 0.035278-0.91017 0-1.009-0.0635-0.04939-0.028222-0.04939-0.11289zm1.1501-0.55739q-0.09172-0.028222-0.09172-0.14817 0-0.11994 0.09172-0.14817 0.09172-0.028222 0.43745-0.028222 0.34572 0 0.43745 0.028222 0.09172 0.028222 0.09172 0.14817 0 0.11995-0.09172 0.14817-0.09172 0.028222-0.43745 0.028222-0.34572 0-0.43745-0.028222zm-1.4393 0q-0.0635-0.035278-0.0635-0.14817t0.0635-0.14111q0.07056-0.035278 0.28928-0.035278 0.21872 0 0.28222 0.035278 0.07056 0.028222 0.07056 0.14111 0 0.11289-0.07056 0.14817-0.0635 0.028222-0.28222 0.028222-0.21872 0-0.28928-0.028222zm1.7639-0.70556q-0.0635-0.035278-0.0635-0.14817t0.0635-0.14111q0.07056-0.035278 0.28928-0.035278 0.21872 0 0.28222 0.035278 0.07056 0.028222 0.07056 0.14111 0 0.11289-0.07056 0.14817-0.0635 0.028222-0.28222 0.028222-0.21872 0-0.28928-0.028222zm-1.7639 0q-0.0635-0.035278-0.0635-0.14817t0.0635-0.14111q0.07056-0.035278 0.28928-0.035278 0.21872 0 0.28222 0.035278 0.07056 0.028222 0.07056 0.14111 0 0.11289-0.07056 0.14817-0.0635 0.028222-0.28222 0.028222-0.21872 0-0.28928-0.028222zm1.7639-0.70556q-0.0635-0.035278-0.0635-0.14817t0.0635-0.14111q0.07056-0.035278 0.28928-0.035278 0.21872 0 0.28222 0.035278 0.07056 0.028222 0.07056 0.14111 0 0.11289-0.07056 0.14817-0.0635 0.028222-0.28222 0.028222-0.21872 0-0.28928-0.028222zm-1.7639 0q-0.0635-0.035278-0.0635-0.14817t0.0635-0.14111q0.07056-0.035278 0.28928-0.035278 0.21872 0 0.28222 0.035278 0.07056 0.028222 0.07056 0.14111 0 0.11289-0.07056 0.14817-0.0635 0.028222-0.28222 0.028222-0.21872 0-0.28928-0.028222z"/>
</g>
<text x="14.900091" y="12.741232" fill="#000000" font-family="sans-serif" font-size="10.583px" stroke-width=".26458" style="line-height:1.25" xml:space="preserve"><tspan x="14.900091" y="12.741232" stroke-width=".26458"/></text>
<g fill="#ffbf00" stroke-width=".26458" aria-label="Copeland">
<path d="m1.957 11.966q-0.014111-0.03528-0.014111-0.09878t0.014111-0.09172q0.021167-0.03528 0.11994-0.05645 0.10583-0.02117 0.26106-0.02117 0.15522-0.0071 0.48684-0.0071t0.48684 0.0071q0.15522 0 0.254 0.02117 0.10583 0.02117 0.11994 0.05645 0.021167 0.02822 0.021167 0.09172t-0.021167 0.09878q-0.014111 0.02822-0.11994 0.04939-0.098778 0.02117-0.254 0.02822-0.15522 0-0.48684 0t-0.48684 0q-0.15522-0.0071-0.26106-0.02822-0.098778-0.02117-0.11994-0.04939zm1.4605-0.65617q-0.0635-0.03528-0.0635-0.14817 0-0.11289 0.0635-0.14111 0.070556-0.03528 0.28928-0.03528 0.21872 0 0.28222 0.03528 0.070556 0.02822 0.070556 0.14111 0 0.11289-0.070556 0.14817-0.0635 0.02822-0.28222 0.02822-0.21872 0-0.28928-0.02822zm-1.7639 0q-0.0635-0.03528-0.0635-0.14817 0-0.11289 0.0635-0.14111 0.070556-0.03528 0.28928-0.03528 0.21872 0 0.28222 0.03528 0.070556 0.02822 0.070556 0.14111 0 0.11289-0.070556 0.14817-0.0635 0.02822-0.28222 0.02822-0.21872 0-0.28928-0.02822zm-0.35278-0.70556q-0.0635-0.03528-0.0635-0.14817 0-0.11289 0.0635-0.14111 0.070556-0.035278 0.28928-0.035278t0.28222 0.03528q0.070556 0.02822 0.070556 0.14111 0 0.11289-0.070556 0.14817-0.0635 0.02822-0.28222 0.02822-0.21872 0-0.28928-0.02822zm0-0.70556q-0.0635-0.035278-0.0635-0.14817t0.0635-0.14111q0.070556-0.035278 0.28928-0.035278 0.21872 0 0.28222 0.035278 0.070556 0.028222 0.070556 0.14111 0 0.11289-0.070556 0.14817-0.0635 0.028222-0.28222 0.028222-0.21872 0-0.28928-0.028222zm0-0.70556q-0.0635-0.035278-0.0635-0.14817t0.0635-0.14111q0.070556-0.035278 0.28928-0.035278 0.21872 0 0.28222 0.035278 0.070556 0.028222 0.070556 0.14111 0 0.11289-0.070556 0.14817-0.0635 0.028222-0.28222 0.028222-0.21872 0-0.28928-0.028222zm2.1167-0.70556q-0.0635-0.035278-0.0635-0.14817 0-0.11289 0.0635-0.14111 0.070556-0.035278 0.28928-0.035278 0.21872 0 0.28222 0.035278 0.070556 0.028222 0.070556 0.14111 0 0.11289-0.070556 0.14817-0.0635 0.028222-0.28222 0.028222-0.21872 0-0.28928-0.028222zm-1.7639 0q-0.0635-0.035278-0.0635-0.14817 0-0.11289 0.0635-0.14111 0.070556-0.035278 0.28928-0.035278 0.21872 0 0.28222 0.035278 0.070556 0.028222 0.070556 0.14111 0 0.11289-0.070556 0.14817-0.0635 0.028222-0.28222 0.028222-0.21872 0-0.28928-0.028222zm0.30339-0.75495q-0.014111-0.035278-0.014111-0.098778t0.014111-0.091723q0.021167-0.035278 0.11994-0.056445 0.10583-0.021167 0.26106-0.021167 0.15522-0.00706 0.48684-0.00706t0.48684 0.00706q0.15522 0 0.254 0.021167 0.10583 0.021167 0.11994 0.056445 0.021167 0.028222 0.021167 0.091723 0 0.0635-0.021167 0.098778-0.014111 0.028222-0.11994 0.049389-0.098778 0.021167-0.254 0.028222-0.15522 0-0.48684 0t-0.48684 0q-0.15522-0.00706-0.26106-0.028222-0.098778-0.021167-0.11994-0.049389z"/>
<path d="m4.8533 11.868q0-0.11289 0.10583-0.14111 0.13406-0.03528 0.9525-0.03528 0.91017 0 1.0089 0.0635 0.049389 0.02822 0.049389 0.11289 0 0.11289-0.10583 0.14111-0.13406 0.03528-0.9525 0.03528-0.91017 0-1.0089-0.0635-0.049389-0.02822-0.049389-0.11289zm1.8274-0.55739q-0.0635-0.03528-0.0635-0.14817 0-0.11289 0.0635-0.14111 0.070556-0.03528 0.28928-0.03528 0.21872 0 0.28222 0.03528 0.070556 0.02822 0.070556 0.14111 0 0.11289-0.070556 0.14817-0.0635 0.02822-0.28222 0.02822-0.21872 0-0.28928-0.02822zm-2.1167 0q-0.0635-0.03528-0.0635-0.14817 0-0.11289 0.0635-0.14111 0.070556-0.03528 0.28928-0.03528 0.21872 0 0.28222 0.03528 0.070556 0.02822 0.070556 0.14111 0 0.11289-0.070556 0.14817-0.0635 0.02822-0.28222 0.02822-0.21872 0-0.28928-0.02822zm2.1167-0.70556q-0.0635-0.03528-0.0635-0.14817 0-0.11289 0.0635-0.14111 0.070556-0.035278 0.28928-0.035278t0.28222 0.03528q0.070556 0.02822 0.070556 0.14111 0 0.11289-0.070556 0.14817-0.0635 0.02822-0.28222 0.02822-0.21872 0-0.28928-0.02822zm-2.1167 0q-0.0635-0.03528-0.0635-0.14817 0-0.11289 0.0635-0.14111 0.070556-0.035278 0.28928-0.035278t0.28222 0.03528q0.070556 0.02822 0.070556 0.14111 0 0.11289-0.070556 0.14817-0.0635 0.02822-0.28222 0.02822-0.21872 0-0.28928-0.02822zm2.1167-0.70556q-0.0635-0.035278-0.0635-0.14817t0.0635-0.14111q0.070556-0.035278 0.28928-0.035278 0.21872 0 0.28222 0.035278 0.070556 0.028222 0.070556 0.14111 0 0.11289-0.070556 0.14817-0.0635 0.028222-0.28222 0.028222-0.21872 0-0.28928-0.028222zm-2.1167 0q-0.0635-0.035278-0.0635-0.14817t0.0635-0.14111q0.070556-0.035278 0.28928-0.035278 0.21872 0 0.28222 0.035278 0.070556 0.028222 0.070556 0.14111 0 0.11289-0.070556 0.14817-0.0635 0.028222-0.28222 0.028222-0.21872 0-0.28928-0.028222zm0.28928-0.85373q0-0.11289 0.10583-0.14111 0.13406-0.035278 0.9525-0.035278 0.91017 0 1.0089 0.0635 0.049389 0.028222 0.049389 0.11289 0 0.11289-0.10583 0.14111-0.13406 0.035278-0.9525 0.035278-0.91017 0-1.0089-0.0635-0.049389-0.028222-0.049389-0.11289z"/>
<path d="m7.8273 13.42q-0.0635-0.02822-0.0635-0.14111 0-0.11289 0.0635-0.14817 0.070556-0.02822 0.28928-0.02822 0.21872 0 0.28222 0.02822 0.070556 0.03528 0.070556 0.14817 0 0.11289-0.070556 0.14111-0.0635 0.03528-0.28222 0.03528-0.21872 0-0.28928-0.03528zm0-0.70556q-0.0635-0.02822-0.0635-0.14111 0-0.11289 0.0635-0.14817 0.070556-0.02822 0.28928-0.02822 0.21872 0 0.28222 0.02822 0.070556 0.03528 0.070556 0.14817 0 0.11289-0.070556 0.14111-0.0635 0.03528-0.28222 0.03528-0.21872 0-0.28928-0.03528zm0-0.6985q-0.0635-0.03528-0.0635-0.14817 0-0.11289 0.0635-0.14111 0.070556-0.03528 0.28928-0.03528 0.21872 0 0.28222 0.03528 0.070556 0.02822 0.070556 0.14111 0 0.11289-0.070556 0.14817-0.0635 0.02822-0.28222 0.02822-0.21872 0-0.28928-0.02822zm-0.0635-0.85373q0-0.10583 0.10583-0.13406 0.15522-0.04233 1.1289-0.04233 1.0654 0 1.1783 0.0635 0.05645 0.02822 0.05645 0.11289 0 0.10583-0.10583 0.13406-0.15522 0.04233-1.1289 0.04233-1.0654 0-1.1783-0.0635-0.056445-0.02822-0.056445-0.11289zm2.1802-0.55739q-0.0635-0.03528-0.0635-0.14817 0-0.11289 0.0635-0.14111 0.070555-0.035278 0.28928-0.035278 0.21872 0 0.28222 0.03528 0.07056 0.02822 0.07056 0.14111 0 0.11289-0.07056 0.14817-0.0635 0.02822-0.28222 0.02822-0.21872 0-0.28928-0.02822zm-2.0885 0q-0.091723-0.02822-0.091723-0.14817 0-0.11994 0.091723-0.14817 0.091722-0.028222 0.43745-0.028222t0.43745 0.02822q0.091723 0.02822 0.091723 0.14817 0 0.11994-0.091723 0.14817-0.091723 0.02822-0.43745 0.02822-0.34572 0-0.43745-0.02822zm2.0885-0.70556q-0.0635-0.035278-0.0635-0.14817t0.0635-0.14111q0.070555-0.035278 0.28928-0.035278 0.21872 0 0.28222 0.035278 0.07056 0.028222 0.07056 0.14111 0 0.11289-0.07056 0.14817-0.0635 0.028222-0.28222 0.028222-0.21872 0-0.28928-0.028222zm-2.0885 0q-0.091723-0.028222-0.091723-0.14817 0-0.11994 0.091723-0.14817 0.091723-0.028222 0.43745-0.028222 0.34572 0 0.43745 0.028222 0.091723 0.028222 0.091723 0.14817 0 0.11994-0.091723 0.14817-0.091723 0.028222-0.43745 0.028222-0.34572 0-0.43745-0.028222zm-0.091723-0.85373q0-0.10583 0.10583-0.13406 0.15522-0.042334 1.1289-0.042334 1.0654 0 1.1783 0.0635 0.05645 0.028222 0.05645 0.11289 0 0.10583-0.10583 0.13406-0.15522 0.042333-1.1289 0.042333-1.0654 0-1.1783-0.0635-0.056445-0.028222-0.056445-0.11289z"/>
<path d="m11.38 11.868q0-0.11289 0.10583-0.14111 0.13406-0.03528 0.9525-0.03528 0.91017 0 1.0089 0.0635 0.04939 0.02822 0.04939 0.11289 0 0.11289-0.10583 0.14111-0.13406 0.03528-0.9525 0.03528-0.91017 0-1.0089-0.0635-0.04939-0.02822-0.04939-0.11289zm-0.28928-0.55739q-0.0635-0.03528-0.0635-0.14817 0-0.11289 0.0635-0.14111 0.07056-0.03528 0.28928-0.03528 0.21872 0 0.28222 0.03528 0.07056 0.02822 0.07056 0.14111 0 0.11289-0.07056 0.14817-0.0635 0.02822-0.28222 0.02822-0.21872 0-0.28928-0.02822zm-0.0635-0.85373q0-0.10583 0.10583-0.13406 0.16933-0.04233 1.3053-0.04233 1.2206 0 1.3476 0.0635 0.0635 0.02822 0.0635 0.11289 0 0.10583-0.10583 0.13406-0.16933 0.04233-1.3053 0.04233-1.2206 0-1.3476-0.0635-0.0635-0.02822-0.0635-0.11289zm2.1802-0.55739q-0.0635-0.035278-0.0635-0.14817t0.0635-0.14111q0.07056-0.035278 0.28928-0.035278 0.21872 0 0.28222 0.035278 0.07056 0.028222 0.07056 0.14111 0 0.11289-0.07056 0.14817-0.0635 0.028222-0.28222 0.028222-0.21872 0-0.28928-0.028222zm-2.1167 0q-0.0635-0.035278-0.0635-0.14817t0.0635-0.14111q0.07056-0.035278 0.28928-0.035278 0.21872 0 0.28222 0.035278 0.07056 0.028222 0.07056 0.14111 0 0.11289-0.07056 0.14817-0.0635 0.028222-0.28222 0.028222-0.21872 0-0.28928-0.028222zm0.28928-0.85373q0-0.11289 0.10583-0.14111 0.13406-0.035278 0.9525-0.035278 0.91017 0 1.0089 0.0635 0.04939 0.028222 0.04939 0.11289 0 0.11289-0.10583 0.14111-0.13406 0.035278-0.9525 0.035278-0.91017 0-1.0089-0.0635-0.04939-0.028222-0.04939-0.11289z"/>
<path d="m15.109 12.016q-0.11289-0.02822-0.11289-0.14817 0-0.11994 0.11289-0.14817 0.11289-0.02822 0.59267-0.02822t0.59267 0.02822q0.11289 0.02822 0.11289 0.14817 0 0.11994-0.11289 0.14817-0.11289 0.02822-0.59267 0.02822t-0.59267-0.02822zm0.30339-0.70556q-0.0635-0.03528-0.0635-0.14817 0-0.11289 0.0635-0.14111 0.07056-0.03528 0.28928-0.03528 0.21872 0 0.28222 0.03528 0.07056 0.02822 0.07056 0.14111 0 0.11289-0.07056 0.14817-0.0635 0.02822-0.28222 0.02822-0.21872 0-0.28928-0.02822zm0-0.70556q-0.0635-0.03528-0.0635-0.14817 0-0.11289 0.0635-0.14111 0.07056-0.03528 0.28928-0.03528 0.21872 0 0.28222 0.03528 0.07056 0.02822 0.07056 0.14111 0 0.11289-0.07056 0.14817-0.0635 0.02822-0.28222 0.02822-0.21872 0-0.28928-0.02822zm0-0.70556q-0.0635-0.035278-0.0635-0.14817t0.0635-0.14111q0.07056-0.035278 0.28928-0.035278 0.21872 0 0.28222 0.035278 0.07056 0.028222 0.07056 0.14111 0 0.11289-0.07056 0.14817-0.0635 0.028222-0.28222 0.028222-0.21872 0-0.28928-0.028222zm0-0.70556q-0.0635-0.035278-0.0635-0.14817t0.0635-0.14111q0.07056-0.035278 0.28928-0.035278 0.21872 0 0.28222 0.035278 0.07056 0.028222 0.07056 0.14111 0 0.11289-0.07056 0.14817-0.0635 0.028222-0.28222 0.028222-0.21872 0-0.28928-0.028222zm0-0.70556q-0.0635-0.035278-0.0635-0.14817 0-0.11289 0.0635-0.14111 0.07056-0.035278 0.28928-0.035278 0.21872 0 0.28222 0.035278 0.07056 0.028222 0.07056 0.14111 0 0.11289-0.07056 0.14817-0.0635 0.028222-0.28222 0.028222-0.21872 0-0.28928-0.028222zm-0.32456-0.70556q-0.09172-0.028222-0.09172-0.14817 0-0.11995 0.09172-0.14817 0.09172-0.028222 0.43745-0.028222 0.34572 0 0.43745 0.028222 0.09172 0.028222 0.09172 0.14817 0 0.11994-0.09172 0.14817-0.09172 0.028222-0.43745 0.028222-0.34572 0-0.43745-0.028222z"/>
<path d="m17.906 11.868q0-0.10583 0.10583-0.13406 0.15522-0.04233 1.1289-0.04233 1.0654 0 1.1783 0.0635 0.05645 0.02822 0.05645 0.11289 0 0.10583-0.10583 0.13406-0.15522 0.04233-1.1289 0.04233-1.0654 0-1.1783-0.0635-0.05645-0.02822-0.05645-0.11289zm1.5028-0.55739q-0.09172-0.02822-0.09172-0.14817 0-0.11994 0.09172-0.14817 0.09172-0.02822 0.43745-0.02822 0.35278 0 0.43745 0.02822 0.09172 0.02822 0.09172 0.14817 0 0.11994-0.09172 0.14817-0.08467 0.02822-0.43745 0.02822-0.34572 0-0.43745-0.02822zm-1.7921 0q-0.0635-0.03528-0.0635-0.14817 0-0.11289 0.0635-0.14111 0.07056-0.03528 0.28928-0.03528 0.21872 0 0.28222 0.03528 0.07056 0.02822 0.07056 0.14111 0 0.11289-0.07056 0.14817-0.0635 0.02822-0.28222 0.02822-0.21872 0-0.28928-0.02822zm0.28928-0.85373q0-0.10583 0.10583-0.13406 0.15522-0.042334 1.1289-0.042334 1.0654 0 1.1783 0.0635 0.05645 0.02822 0.05645 0.11289 0 0.10583-0.10583 0.13406-0.15522 0.04233-1.1289 0.04233-1.0654 0-1.1783-0.0635-0.05645-0.02822-0.05645-0.11289zm1.8274-0.55739q-0.0635-0.035278-0.0635-0.14817t0.0635-0.14111q0.07056-0.035278 0.28928-0.035278 0.21872 0 0.28222 0.035278 0.07056 0.028222 0.07056 0.14111 0 0.11289-0.07056 0.14817-0.0635 0.028222-0.28222 0.028222-0.21872 0-0.28928-0.028222zm-1.8274-0.85373q0-0.11289 0.10583-0.14111 0.13406-0.035278 0.9525-0.035278 0.91017 0 1.0089 0.0635 0.04939 0.028222 0.04939 0.11289 0 0.11289-0.10583 0.14111-0.13406 0.035278-0.9525 0.035278-0.91017 0-1.009-0.0635-0.04939-0.028222-0.04939-0.11289z"/>
<path d="m22.997 12.016q-0.0635-0.03528-0.0635-0.14817 0-0.11289 0.0635-0.14111 0.07056-0.03528 0.28928-0.03528 0.21872 0 0.28222 0.03528 0.07056 0.02822 0.07056 0.14111 0 0.11289-0.07056 0.14817-0.0635 0.02822-0.28222 0.02822-0.21872 0-0.28928-0.02822zm-2.1167 0q-0.0635-0.03528-0.0635-0.14817 0-0.11289 0.0635-0.14111 0.07056-0.03528 0.28928-0.03528 0.21872 0 0.28222 0.03528 0.07056 0.02822 0.07056 0.14111 0 0.11289-0.07056 0.14817-0.0635 0.02822-0.28222 0.02822-0.21872 0-0.28928-0.02822zm2.1167-0.70556q-0.0635-0.03528-0.0635-0.14817 0-0.11289 0.0635-0.14111 0.07056-0.03528 0.28928-0.03528 0.21872 0 0.28222 0.03528 0.07056 0.02822 0.07056 0.14111 0 0.11289-0.07056 0.14817-0.0635 0.02822-0.28222 0.02822-0.21872 0-0.28928-0.02822zm-2.1167 0q-0.0635-0.03528-0.0635-0.14817 0-0.11289 0.0635-0.14111 0.07056-0.03528 0.28928-0.03528 0.21872 0 0.28222 0.03528 0.07056 0.02822 0.07056 0.14111 0 0.11289-0.07056 0.14817-0.0635 0.02822-0.28222 0.02822-0.21872 0-0.28928-0.02822zm2.1167-0.70556q-0.0635-0.03528-0.0635-0.14817 0-0.11289 0.0635-0.14111 0.07056-0.03528 0.28928-0.03528 0.21872 0 0.28222 0.03528 0.07056 0.02822 0.07056 0.14111 0 0.11289-0.07056 0.14817-0.0635 0.02822-0.28222 0.02822-0.21872 0-0.28928-0.02822zm-2.1167 0q-0.0635-0.03528-0.0635-0.14817 0-0.11289 0.0635-0.14111 0.07056-0.03528 0.28928-0.03528 0.21872 0 0.28222 0.03528 0.07056 0.02822 0.07056 0.14111 0 0.11289-0.07056 0.14817-0.0635 0.02822-0.28222 0.02822-0.21872 0-0.28928-0.02822zm2.1167-0.70556q-0.0635-0.035278-0.0635-0.14817t0.0635-0.14111q0.07056-0.035278 0.28928-0.035278 0.21872 0 0.28222 0.035278 0.07056 0.028222 0.07056 0.14111 0 0.11289-0.07056 0.14817-0.0635 0.028222-0.28222 0.028222-0.21872 0-0.28928-0.028222zm-2.0885 0q-0.09172-0.028222-0.09172-0.14817 0-0.11994 0.09172-0.14817 0.09172-0.028222 0.43745-0.028222 0.34572 0 0.43745 0.028222 0.09172 0.028222 0.09172 0.14817 0 0.11994-0.09172 0.14817-0.09172 0.028222-0.43745 0.028222-0.34572 0-0.43745-0.028222zm-0.09172-0.85373q0-0.10583 0.10583-0.13406 0.15522-0.042334 1.1289-0.042334 1.0654 0 1.1783 0.0635 0.05645 0.028222 0.05645 0.11289 0 0.10583-0.10583 0.13406-0.15522 0.042333-1.1289 0.042333-1.0654 0-1.1783-0.0635-0.05644-0.028222-0.05644-0.11289z"/>
<path d="m24.433 11.868q0-0.10583 0.10583-0.13406 0.15522-0.04233 1.1289-0.04233 1.0654 0 1.1783 0.0635 0.05645 0.02822 0.05645 0.11289 0 0.10583-0.10583 0.13406-0.15522 0.04233-1.1289 0.04233-1.0654 0-1.1783-0.0635-0.05645-0.02822-0.05645-0.11289zm1.5028-0.55739q-0.09172-0.02822-0.09172-0.14817 0-0.11994 0.09172-0.14817 0.09172-0.02822 0.43745-0.02822 0.35278 0 0.43745 0.02822 0.09172 0.02822 0.09172 0.14817 0 0.11994-0.09172 0.14817-0.08467 0.02822-0.43745 0.02822-0.34572 0-0.43745-0.02822zm-1.7921 0q-0.0635-0.03528-0.0635-0.14817 0-0.11289 0.0635-0.14111 0.07056-0.03528 0.28928-0.03528 0.21872 0 0.28222 0.03528 0.07055 0.02822 0.07055 0.14111 0 0.11289-0.07055 0.14817-0.0635 0.02822-0.28222 0.02822-0.21872 0-0.28928-0.02822zm2.1167-0.70556q-0.0635-0.03528-0.0635-0.14817 0-0.11289 0.0635-0.14111 0.07056-0.03528 0.28928-0.03528 0.21872 0 0.28222 0.03528 0.07056 0.02822 0.07056 0.14111 0 0.11289-0.07056 0.14817-0.0635 0.02822-0.28222 0.02822-0.21872 0-0.28928-0.02822zm-2.1167 0q-0.0635-0.03528-0.0635-0.14817 0-0.11289 0.0635-0.14111 0.07056-0.03528 0.28928-0.03528 0.21872 0 0.28222 0.03528 0.07055 0.02822 0.07055 0.14111 0 0.11289-0.07055 0.14817-0.0635 0.02822-0.28222 0.02822-0.21872 0-0.28928-0.02822zm1.7921-0.70556q-0.09172-0.028222-0.09172-0.14817 0-0.11994 0.09172-0.14817 0.09172-0.028222 0.43745-0.028222 0.35278 0 0.43745 0.028222 0.09172 0.028222 0.09172 0.14817 0 0.11994-0.09172 0.14817-0.08467 0.028222-0.43745 0.028222-0.34572 0-0.43745-0.028222zm-1.7921 0q-0.0635-0.035278-0.0635-0.14817t0.0635-0.14111q0.07056-0.035278 0.28928-0.035278 0.21872 0 0.28222 0.035278 0.07055 0.028222 0.07055 0.14111 0 0.11289-0.07055 0.14817-0.0635 0.028222-0.28222 0.028222-0.21872 0-0.28928-0.028222zm0.28928-0.85373q0-0.10583 0.10583-0.13406 0.15522-0.042334 1.1289-0.042334 1.0654 0 1.1783 0.0635 0.05645 0.028222 0.05645 0.11289 0 0.10583-0.10583 0.13406-0.15522 0.042333-1.1289 0.042333-1.0654 0-1.1783-0.0635-0.05645-0.028222-0.05645-0.11289zm1.8274-0.55739q-0.0635-0.035278-0.0635-0.14817 0-0.11289 0.0635-0.14111 0.07056-0.035278 0.28928-0.035278 0.21872 0 0.28222 0.035278 0.07056 0.028222 0.07056 0.14111 0 0.11289-0.07056 0.14817-0.0635 0.028222-0.28222 0.028222-0.21872 0-0.28928-0.028222zm0-0.70556q-0.0635-0.035278-0.0635-0.14817 0-0.11289 0.0635-0.14111 0.07056-0.035278 0.28928-0.035278 0.21872 0 0.28222 0.035278 0.07056 0.028222 0.07056 0.14111 0 0.11289-0.07056 0.14817-0.0635 0.028222-0.28222 0.028222-0.21872 0-0.28928-0.028222z"/>
</g>
</g>
</svg>

