<?xml version="1.0" encoding="UTF-8" standalone="no"?>
<svg
   version="1.1"
   viewBox="0 0 250 250"
   id="svg1183"
   xmlns="http://www.w3.org/2000/svg">
  <g
     transform="matrix(3.2751664,0,0,3.2751664,-12.753498,3.7435463)"
     id="g1181">
    <path
       d="M 79.476,36.94 A 37.416,14.514 0 0 1 42.06,51.454 37.416,14.514 0 0 1 4.644,36.94 37.416,14.514 0 0 1 42.06,22.426 37.416,14.514 0 0 1 79.476,36.94 Z"
       fill="none"
       stroke="#ffaa00"
       stroke-width="1.5"
       id="path1173" />
    <path
       transform="rotate(59.882)"
       d="M 90.545,-17.805 A 37.416,14.514 0 0 1 53.129,-3.291 37.416,14.514 0 0 1 15.713,-17.805 37.416,14.514 0 0 1 53.129,-32.319 37.416,14.514 0 0 1 90.545,-17.805 Z"
       fill="none"
       stroke="#ffaa00"
       stroke-width="1.5"
       id="path1175" />
    <path
       transform="rotate(119.62)"
       d="m 48.813,-54.862 a 37.416,14.514 0 0 1 -37.416,14.514 37.416,14.514 0 0 1 -37.416,-14.514 37.416,14.514 0 0 1 37.416,-14.514 37.416,14.514 0 0 1 37.416,14.514 z"
       fill="none"
       stroke="#ffaa00"
       stroke-width="1.5"
       id="path1177" />
    <path
       d="m 49.409,36.953 a 7.4267,7.4267 0 0 1 -7.4267,7.4267 7.4267,7.4267 0 0 1 -7.4267,-7.4267 7.4267,7.4267 0 0 1 7.4267,-7.4267 7.4267,7.4267 0 0 1 7.4267,7.4267 z"
       fill="#ffaa00"
       stroke-width="1.5"
       id="path1179" />
  </g>
</svg>
